<?xml version="1.0" encoding="utf-8"?>
<!-- Generator: Adobe Illustrator 27.5.0, SVG Export Plug-In . SVG Version: 6.00 Build 0)  -->
<svg version="1.1" xmlns="http://www.w3.org/2000/svg" xmlns:xlink="http://www.w3.org/1999/xlink" x="0px" y="0px"
	 viewBox="0 0 2200 1466" style="enable-background:new 0 0 2200 1466;" xml:space="preserve">
<g id="background">
	<rect style="fill:#FFFFFF;" width="2200" height="1466"/>
</g>
<g id="Objects">
	<g>
		
			<radialGradient id="SVGID_1_" cx="1105.3462" cy="973.6013" r="811.6736" gradientTransform="matrix(1.2309 0 0 0.0535 -260.5727 973.4467)" gradientUnits="userSpaceOnUse">
			<stop  offset="0.0011" style="stop-color:#000000"/>
			<stop  offset="1" style="stop-color:#000000;stop-opacity:0"/>
		</radialGradient>
		<ellipse style="opacity:0.41;fill:url(#SVGID_1_);" cx="1100" cy="1025.543" rx="1051" ry="53.457"/>
		<g>
			
				<radialGradient id="SVGID_00000147904791901545968790000014710171455270928009_" cx="1100" cy="725.8875" r="942.7639" gradientTransform="matrix(1 0.0032 -0.0011 0.3382 0.7864 476.8586)" gradientUnits="userSpaceOnUse">
				<stop  offset="0" style="stop-color:#17C5FF"/>
				<stop  offset="1" style="stop-color:#5C3BED"/>
			</radialGradient>
			<path style="fill:url(#SVGID_00000147904791901545968790000014710171455270928009_);" d="M2067.757,725.888
				c0,80.766-32.742,153.891-85.671,206.829c-52.938,52.929-126.063,85.671-206.829,85.671H424.743
				c-161.541,0-292.5-130.959-292.5-292.5c0-80.766,32.742-153.891,85.671-206.829c52.938-52.929,126.063-85.671,206.829-85.671
				h1350.513C1936.797,433.388,2067.757,564.347,2067.757,725.888z"/>
			
				<radialGradient id="SVGID_00000166663775113252794590000002731455264244056213_" cx="1100" cy="725.8875" r="719.5254" gradientTransform="matrix(1 0.0032 -0.0011 0.3382 0.7864 476.8586)" gradientUnits="userSpaceOnUse">
				<stop  offset="0" style="stop-color:#07A6DB"/>
				<stop  offset="1" style="stop-color:#391CBA"/>
			</radialGradient>
			<path style="fill:url(#SVGID_00000166663775113252794590000002731455264244056213_);" d="M1775.256,1023.652H424.744
				c-79.535,0-154.309-30.973-210.55-87.214c-56.241-56.241-87.214-131.016-87.214-210.55c0-79.527,30.973-154.302,87.213-210.551
				c56.249-56.241,131.024-87.214,210.551-87.214h1350.513c79.535,0,154.309,30.973,210.55,87.214
				c56.241,56.241,87.214,131.016,87.214,210.55c0,79.528-30.972,154.303-87.213,210.55
				C1929.559,992.679,1854.784,1023.652,1775.256,1023.652z M424.744,438.652c-76.715,0-148.846,29.878-203.107,84.13
				c-54.251,54.26-84.129,126.391-84.129,203.106c0,76.722,29.878,148.852,84.131,203.105
				c54.252,54.252,126.383,84.13,203.105,84.13h1350.513c76.716,0,148.847-29.878,203.107-84.13
				c54.251-54.259,84.129-126.39,84.129-203.105c0-76.722-29.878-148.853-84.131-203.105
				c-54.252-54.252-126.383-84.13-203.105-84.13H424.744z"/>
			
				<linearGradient id="SVGID_00000016753892337048877890000003673630349783419543_" gradientUnits="userSpaceOnUse" x1="1100" y1="469.2981" x2="1100" y2="610.8004">
				<stop  offset="0" style="stop-color:#FFFFFF;stop-opacity:0"/>
				<stop  offset="1" style="stop-color:#FFFFFF"/>
			</linearGradient>
			<path style="opacity:0.22;fill:url(#SVGID_00000016753892337048877890000003673630349783419543_);" d="M1980.417,626.743H219.583
				c-17.802,0-28.764-19.502-19.471-34.686c11.21-18.318,24.675-35.437,40.249-51.011c51.675-51.667,120.374-80.129,193.443-80.129
				h1332.391c73.069,0,141.768,28.462,193.443,80.129c15.574,15.574,29.038,32.693,40.249,51.011
				C2009.18,607.241,1998.219,626.743,1980.417,626.743z"/>
		</g>
		<g>
			<path style="fill:#FFFFFF;" d="M423.882,749.641c-1.129,7.028-3.429,13.081-6.898,18.157c-3.472,5.076-7.897,8.98-13.276,11.714
				c-5.381,2.734-11.542,4.099-18.483,4.099c-8.677,0-16.226-2.297-22.647-6.898c-6.422-4.598-11.368-11.236-14.838-19.914
				c-3.472-8.675-5.206-19.045-5.206-31.107v-0.13c0-11.974,1.734-22.234,5.206-30.782c3.47-8.546,8.395-15.118,14.772-19.718
				c6.378-4.598,13.904-6.898,22.582-6.898c7.374,0,13.752,1.431,19.133,4.295c5.379,2.863,9.697,6.791,12.951,11.779
				c3.254,4.991,5.401,10.783,6.443,17.375l0.26,1.823h46.075l-0.13-1.172c-0.52-14.056-4.405-26.637-11.649-37.745
				c-7.245-11.106-17.137-19.869-29.676-26.291c-12.54-6.42-27.007-9.631-43.407-9.631c-18.657,0-34.816,3.839-48.483,11.518
				c-13.667,7.679-24.232,18.765-31.693,33.255c-7.464,14.492-11.193,31.933-11.193,52.323v0.13
				c0,20.392,3.709,37.856,11.128,52.389c7.419,14.534,17.961,25.662,31.628,33.384c13.666,7.724,29.87,11.584,48.613,11.584
				c16.312,0,30.737-3.211,43.277-9.632c12.539-6.42,22.472-15.163,29.806-26.226c7.331-11.064,11.302-23.578,11.909-37.551v-1.431
				h-45.945L423.882,749.641z"/>
			<path style="fill:#FFFFFF;" d="M624.067,640.44c-13.884-7.895-30.371-11.844-49.46-11.844c-18.829,0-35.186,3.949-49.069,11.844
				c-13.883,7.897-24.622,19.09-32.213,33.58c-7.594,14.492-11.389,31.715-11.389,51.672v0.26c0,19.958,3.775,37.204,11.324,51.737
				c7.55,14.535,18.265,25.751,32.148,33.645c13.882,7.897,30.282,11.844,49.199,11.844c19.177,0,35.683-3.947,49.525-11.844
				c13.839-7.895,24.512-19.11,32.018-33.645c7.504-14.533,11.259-31.779,11.259-51.737v-0.26c0-19.956-3.754-37.18-11.259-51.672
				C648.644,659.53,637.949,648.337,624.067,640.44z M618.731,725.952c0,11.714-1.78,21.888-5.336,30.521
				c-3.559,8.635-8.613,15.316-15.164,20.044c-6.552,4.731-14.427,7.093-23.623,7.093c-8.85,0-16.574-2.342-23.167-7.028
				c-6.596-4.685-11.694-11.344-15.293-19.979c-3.602-8.633-5.402-18.85-5.402-30.651v-0.26c0-11.887,1.8-22.126,5.402-30.716
				c3.599-8.591,8.72-15.206,15.358-19.849c6.638-4.641,14.338-6.963,23.102-6.963c9.023,0,16.833,2.342,23.428,7.028
				c6.594,4.686,11.692,11.324,15.293,19.914c3.6,8.59,5.402,18.787,5.402,30.586V725.952z"/>
			<polygon style="fill:#FFFFFF;" points="801.866,740.269 801.045,740.269 725.985,631.98 685.375,631.98 685.375,819.795 
				733.143,819.795 733.143,710.334 733.998,710.334 809.414,819.795 849.502,819.795 849.502,631.98 801.866,631.98 			"/>
			<polygon style="fill:#FFFFFF;" points="1015.716,631.98 864.476,631.98 864.476,670.376 916.277,670.376 916.277,819.795 
				964.044,819.795 964.044,670.376 1015.716,670.376 			"/>
			<path style="fill:#FFFFFF;" d="M1102.405,631.98h-14.317h-29.676l-63.256,187.815h50.24l11.694-41.129h61.177l11.73,41.129h50.24
				l-63.255-187.815H1102.405z M1066.897,744.174l20.28-71.326h0.912l20.342,71.326H1066.897z"/>
			<path style="fill:#FFFFFF;" d="M1306.625,749.641c-1.129,7.028-3.429,13.081-6.898,18.157c-3.472,5.076-7.897,8.98-13.276,11.714
				c-5.381,2.734-11.541,4.099-18.482,4.099c-8.678,0-16.227-2.297-22.648-6.898c-6.422-4.598-11.368-11.236-14.838-19.914
				c-3.471-8.675-5.206-19.045-5.206-31.107v-0.13c0-11.974,1.735-22.234,5.206-30.782c3.47-8.546,8.395-15.118,14.773-19.718
				c6.378-4.598,13.904-6.898,22.583-6.898c7.373,0,13.751,1.431,19.132,4.295c5.379,2.863,9.697,6.791,12.951,11.779
				c3.254,4.991,5.401,10.783,6.443,17.375l0.26,1.823h46.075l-0.13-1.172c-0.52-14.056-4.405-26.637-11.649-37.745
				c-7.245-11.106-17.137-19.869-29.676-26.291c-12.54-6.42-27.007-9.631-43.406-9.631c-18.657,0-34.817,3.839-48.483,11.518
				c-13.666,7.679-24.232,18.765-31.693,33.255c-7.464,14.492-11.194,31.933-11.194,52.323v0.13c0,20.392,3.71,37.856,11.129,52.389
				c7.418,14.534,17.962,25.662,31.628,33.384c13.666,7.724,29.871,11.584,48.613,11.584c16.312,0,30.736-3.211,43.276-9.632
				c12.539-6.42,22.473-15.163,29.806-26.226c7.331-11.064,11.302-23.578,11.909-37.551v-1.431h-45.945L1306.625,749.641z"/>
			<polygon style="fill:#FFFFFF;" points="1357.521,670.376 1409.322,670.376 1409.322,819.795 1457.09,819.795 1457.09,670.376 
				1508.761,670.376 1508.761,631.98 1357.521,631.98 			"/>
			<path style="fill:#FFFFFF;" d="M1683.962,748.6c0,10.933-2.843,19.503-8.525,25.706c-5.684,6.205-13.861,9.306-24.534,9.306
				c-10.673,0-18.873-3.101-24.6-9.306c-5.726-6.203-8.59-14.773-8.59-25.706V631.98h-47.768v121.174
				c0,14.056,3.34,26.336,10.022,36.834c6.681,10.5,16.095,18.657,28.244,24.47c12.147,5.813,26.335,8.72,42.561,8.72
				c16.486,0,30.783-2.908,42.887-8.72c12.104-5.812,21.476-13.991,28.114-24.535c6.638-10.542,9.957-22.797,9.957-36.769V631.98
				h-47.768V748.6z"/>
			<path style="fill:#FFFFFF;" d="M1892.086,726.343c-9.459-8.503-24.167-14.662-44.123-18.482l-19.264-3.644
				c-10.066-1.908-17.397-4.338-21.996-7.289c-4.6-2.949-6.898-6.941-6.898-11.974v-0.13c0-3.557,1.062-6.746,3.189-9.567
				c2.125-2.819,5.227-5.053,9.307-6.703c4.077-1.647,9.023-2.473,14.837-2.473c5.728,0,10.804,0.826,15.229,2.473
				c4.425,1.65,7.982,3.949,10.672,6.898c2.688,2.951,4.295,6.508,4.816,10.673l0.13,1.432h44.383l-0.13-2.733
				c-0.52-11.366-3.796-21.258-9.827-29.676c-6.032-8.416-14.557-14.945-25.575-19.588c-11.021-4.641-24.384-6.963-40.088-6.963
				c-14.317,0-27.094,2.453-38.331,7.353c-11.238,4.904-20.066,11.802-26.486,20.695c-6.423,8.895-9.632,19.373-9.632,31.432v0.131
				c0,14.404,4.836,26.141,14.513,35.206c9.674,9.07,23.795,15.338,42.366,18.808l19.263,3.774
				c11.019,2.083,18.828,4.578,23.428,7.483c4.599,2.909,6.898,7.009,6.898,12.3v0.13c0,3.904-1.259,7.333-3.774,10.282
				c-2.518,2.951-6.053,5.271-10.607,6.963c-4.556,1.692-10.002,2.539-16.335,2.539c-6.075,0-11.584-0.847-16.53-2.539
				c-4.946-1.692-9.002-4.034-12.169-7.028c-3.169-2.994-5.186-6.528-6.053-10.607l-0.26-1.302h-44.383l0.13,2.342
				c0.781,11.975,4.403,22.171,10.868,30.587c6.464,8.417,15.444,14.86,26.942,19.328c11.497,4.468,25.055,6.703,40.675,6.703
				c16.572,0,30.759-2.496,42.561-7.484c11.799-4.989,20.825-12.082,27.072-21.281c6.248-9.196,9.372-20.044,9.372-32.539v-0.13
				C1906.273,746.647,1901.542,734.848,1892.086,726.343z"/>
		</g>
	</g>
</g>
</svg>
